<mxfile host="65bd71144e">
    <diagram id="Wmu-ZvS46gl_3iBJG7WW" name="Page-1">
        <mxGraphModel dx="1143" dy="707" grid="1" gridSize="10" guides="1" tooltips="1" connect="1" arrows="1" fold="1" page="1" pageScale="1" pageWidth="850" pageHeight="1100" math="0" shadow="0">
            <root>
                <mxCell id="0"/>
                <mxCell id="1" parent="0"/>
                <mxCell id="2" value="" style="rounded=0;whiteSpace=wrap;html=1;" vertex="1" parent="1">
                    <mxGeometry x="10" y="10" width="830" height="790" as="geometry"/>
                </mxCell>
                <mxCell id="3" value="" style="rounded=0;whiteSpace=wrap;html=1;fillColor=#ffe6cc;strokeColor=#d79b00;" vertex="1" parent="1">
                    <mxGeometry x="95" y="40" width="660" height="690" as="geometry"/>
                </mxCell>
                <mxCell id="21" style="edgeStyle=none;html=1;entryX=0;entryY=0.5;entryDx=0;entryDy=0;startArrow=none;startFill=0;endArrow=none;endFill=0;exitX=0.5;exitY=0.5;exitDx=0;exitDy=0;exitPerimeter=0;" edge="1" parent="1" source="4" target="7">
                    <mxGeometry relative="1" as="geometry"/>
                </mxCell>
                <mxCell id="22" style="edgeStyle=none;html=1;entryX=0;entryY=0.5;entryDx=0;entryDy=0;startArrow=none;startFill=0;endArrow=none;endFill=0;exitX=0.5;exitY=0.5;exitDx=0;exitDy=0;exitPerimeter=0;" edge="1" parent="1" source="4" target="8">
                    <mxGeometry relative="1" as="geometry"/>
                </mxCell>
                <mxCell id="4" value="Proprietaitre" style="shape=umlActor;verticalLabelPosition=bottom;verticalAlign=top;html=1;" vertex="1" parent="1">
                    <mxGeometry x="40" y="290" width="30" height="60" as="geometry"/>
                </mxCell>
                <mxCell id="10" value="" style="edgeStyle=none;html=1;startArrow=block;startFill=1;endArrow=none;endFill=0;entryX=0;entryY=0.5;entryDx=0;entryDy=0;" edge="1" parent="1" source="7" target="9">
                    <mxGeometry relative="1" as="geometry"/>
                </mxCell>
                <mxCell id="13" style="edgeStyle=none;html=1;entryX=0;entryY=0.5;entryDx=0;entryDy=0;startArrow=block;startFill=1;endArrow=none;endFill=0;exitX=1;exitY=0.5;exitDx=0;exitDy=0;" edge="1" parent="1" source="7" target="11">
                    <mxGeometry relative="1" as="geometry"/>
                </mxCell>
                <mxCell id="14" style="edgeStyle=none;html=1;entryX=0;entryY=0.5;entryDx=0;entryDy=0;startArrow=block;startFill=1;endArrow=none;endFill=0;exitX=1;exitY=1;exitDx=0;exitDy=0;" edge="1" parent="1" source="7" target="12">
                    <mxGeometry relative="1" as="geometry"/>
                </mxCell>
                <mxCell id="7" value="Gestion Moniteur" style="ellipse;whiteSpace=wrap;html=1;" vertex="1" parent="1">
                    <mxGeometry x="190" y="170" width="140" height="70" as="geometry"/>
                </mxCell>
                <mxCell id="18" style="edgeStyle=none;html=1;entryX=0;entryY=0.5;entryDx=0;entryDy=0;startArrow=block;startFill=1;endArrow=none;endFill=0;exitX=0.942;exitY=0.275;exitDx=0;exitDy=0;exitPerimeter=0;" edge="1" parent="1" source="8" target="15">
                    <mxGeometry relative="1" as="geometry"/>
                </mxCell>
                <mxCell id="19" style="edgeStyle=none;html=1;entryX=0;entryY=0.5;entryDx=0;entryDy=0;startArrow=block;startFill=1;endArrow=none;endFill=0;" edge="1" parent="1" source="8" target="16">
                    <mxGeometry relative="1" as="geometry"/>
                </mxCell>
                <mxCell id="20" style="edgeStyle=none;html=1;entryX=0;entryY=0.5;entryDx=0;entryDy=0;startArrow=block;startFill=1;endArrow=none;endFill=0;exitX=0.931;exitY=0.884;exitDx=0;exitDy=0;exitPerimeter=0;" edge="1" parent="1" source="8" target="17">
                    <mxGeometry relative="1" as="geometry"/>
                </mxCell>
                <mxCell id="8" value="Gestion Secretaire" style="ellipse;whiteSpace=wrap;html=1;" vertex="1" parent="1">
                    <mxGeometry x="190" y="450" width="140" height="70" as="geometry"/>
                </mxCell>
                <mxCell id="9" value="Ajouter un moniteur" style="ellipse;whiteSpace=wrap;html=1;fillColor=rgb(255, 255, 255);" vertex="1" parent="1">
                    <mxGeometry x="420" y="80" width="140" height="70" as="geometry"/>
                </mxCell>
                <mxCell id="11" value="Supprimer un moniteur" style="ellipse;whiteSpace=wrap;html=1;fillColor=rgb(255, 255, 255);" vertex="1" parent="1">
                    <mxGeometry x="420" y="170" width="140" height="70" as="geometry"/>
                </mxCell>
                <mxCell id="12" value="Modifier un moniteur" style="ellipse;whiteSpace=wrap;html=1;fillColor=rgb(255, 255, 255);" vertex="1" parent="1">
                    <mxGeometry x="420" y="270" width="140" height="70" as="geometry"/>
                </mxCell>
                <mxCell id="15" value="Ajouter un moniteur" style="ellipse;whiteSpace=wrap;html=1;fillColor=rgb(255, 255, 255);" vertex="1" parent="1">
                    <mxGeometry x="410" y="360" width="140" height="70" as="geometry"/>
                </mxCell>
                <mxCell id="16" value="Supprimer un moniteur" style="ellipse;whiteSpace=wrap;html=1;fillColor=rgb(255, 255, 255);" vertex="1" parent="1">
                    <mxGeometry x="410" y="450" width="140" height="70" as="geometry"/>
                </mxCell>
                <mxCell id="17" value="Modifier un moniteur" style="ellipse;whiteSpace=wrap;html=1;fillColor=rgb(255, 255, 255);" vertex="1" parent="1">
                    <mxGeometry x="410" y="550" width="140" height="70" as="geometry"/>
                </mxCell>
            </root>
        </mxGraphModel>
    </diagram>
</mxfile>